<svg width="58" height="58" viewBox="0 0 58 58" fill="none" xmlns="http://www.w3.org/2000/svg">
<g clip-path="url(#clip0_15_40)">
<path d="M29.5961 47.9713C32.7042 46.8271 34.298 43.376 33.1538 40.2679L31.081 34.6373L25.4504 36.7102C22.3423 37.8544 20.7485 41.3055 21.8927 44.4136C23.0369 47.5217 26.488 49.1155 29.5961 47.9713Z" fill="#0ACF83"/>
<path d="M17.747 33.1525C16.6028 30.0444 18.1967 26.5932 21.3047 25.449L26.9353 23.3762L31.081 34.6373L25.4504 36.7102C22.3423 37.8544 18.8912 36.2605 17.747 33.1525Z" fill="#A259FF"/>
<path d="M13.6013 21.8913C12.457 18.7833 14.0509 15.3321 17.159 14.1879L22.7896 12.1151L26.9352 23.3762L21.3047 25.4491C18.1966 26.5933 14.7455 24.9994 13.6013 21.8913Z" fill="#F24E1E"/>
<path d="M22.7896 12.1151L28.4202 10.0422C31.5283 8.89801 34.9794 10.4919 36.1236 13.5999C37.2678 16.708 35.6739 20.1592 32.5659 21.3034L26.9353 23.3762L22.7896 12.1151Z" fill="#FF7262"/>
<path d="M40.2693 24.8611C41.4135 27.9692 39.8196 31.4203 36.7116 32.5645C33.6035 33.7087 30.1524 32.1148 29.0081 29.0068C27.8639 25.8987 29.4578 22.4476 32.5659 21.3034C35.6739 20.1592 39.1251 21.753 40.2693 24.8611Z" fill="#1ABCFE"/>
</g>
<defs>
<clipPath id="clip0_15_40">
<rect width="24" height="36" fill="white" transform="translate(11.5284 16.2608) rotate(-20.2107)"/>
</clipPath>
</defs>
</svg>
