<svg width="33" height="33" viewBox="0 0 33 33" fill="none" xmlns="http://www.w3.org/2000/svg">
<g clip-path="url(#clip0_15_111)">
<path d="M14.1927 6.45984C14.8286 6.88421 15.4063 7.39005 15.9109 7.96446C16.838 7.9752 17.7601 8.10286 18.6552 8.34441C19.5802 8.59224 20.4415 8.94683 21.2203 9.38611C21.9441 9.14129 22.6969 8.99227 23.4594 8.94287C24.1678 8.89607 25.1885 8.78623 25.5751 9.5417C25.8369 10.0551 25.7443 10.773 25.6687 11.3198C25.585 11.9303 25.3965 12.7044 24.9963 13.4158C25.4854 14.5821 25.6275 15.855 25.2911 17.1106C24.7814 19.0126 23.3088 20.388 21.4776 21.1232C20.5981 21.4701 19.6701 21.6781 18.7267 21.7398C18.8038 22.2496 18.7793 22.7842 18.6373 23.3141L17.8886 26.1084C17.8224 26.3555 17.6608 26.5661 17.4393 26.6939C17.2178 26.8218 16.9546 26.8565 16.7076 26.7903L11.119 25.2928C10.872 25.2266 10.6614 25.065 10.5335 24.8435C10.4056 24.6221 10.371 24.3589 10.4372 24.1118L10.6845 23.1888C9.76579 23.0594 9.04567 22.7626 8.4835 22.3235C7.89569 21.8645 7.5505 21.3048 7.31489 20.7944C7.09098 20.3112 6.97005 19.3244 6.49673 19.0119C6.39101 18.9421 6.30006 18.8522 6.22908 18.7473C6.1581 18.6424 6.10848 18.5245 6.08305 18.4005C6.03168 18.1499 6.08197 17.8891 6.22285 17.6756C6.36373 17.4621 6.58365 17.3133 6.83425 17.2619C7.08484 17.2106 7.34557 17.2609 7.55909 17.4017C8.12401 17.7747 8.40846 18.3301 8.58876 18.7638C8.8811 19.4611 9.04221 20.3129 9.66948 20.8034C9.92782 21.0054 10.3336 21.201 11.0269 21.2889L11.1909 21.2989C11.3285 20.7925 11.5683 20.3196 11.8956 19.9094C11.1095 19.3843 10.4098 18.7402 9.82166 18C8.60339 16.4477 8.01548 14.5211 8.52536 12.6182C8.86129 11.3645 9.61965 10.3338 10.6243 9.56878C10.6333 8.7526 10.8567 7.98587 11.0897 7.41438L11.1039 7.38023C11.3171 6.85636 11.5673 6.23954 12.0601 5.92037C12.7726 5.45939 13.6024 6.06607 14.1915 6.46052L14.1927 6.45984Z" fill="white"/>
</g>
<defs>
<clipPath id="clip0_15_111">
<rect width="25.7143" height="25.7143" fill="white" transform="translate(7.31775 0.980545) rotate(15)"/>
</clipPath>
</defs>
</svg>
