<svg width="44" height="44" viewBox="0 0 44 44" fill="none" xmlns="http://www.w3.org/2000/svg">
<g clip-path="url(#clip0_15_37)">
<path d="M6.74725 12.7872L31.2127 6.74729L37.2526 31.2128L12.7871 37.2526L6.74725 12.7872Z" fill="#F7DF1E"/>
<path d="M18.2274 31.6441L19.8199 30.0489C20.3392 30.6001 20.8016 31.0609 21.5897 30.8663C22.3452 30.6798 22.7487 30.2667 22.4649 29.1172L20.535 21.2999L22.8341 20.7323L24.772 28.5821C25.3599 30.9634 24.2316 32.3919 22.195 32.8947C20.3558 33.3487 19.0531 32.6598 18.2273 31.644M26.2965 29.3907L27.9009 27.8447C28.5925 28.5278 29.3789 28.9609 30.512 28.6812C31.4647 28.446 31.9545 27.8197 31.7923 27.1628C31.5977 26.3745 30.9047 26.2493 29.7402 26.0491L29.1047 25.9444C27.2716 25.648 25.9524 25.0327 25.4902 23.1605C25.0645 21.4361 26.0539 19.7979 28.1068 19.2911C29.5684 18.9303 30.7452 19.18 31.829 20.3237L30.3226 21.9153C29.754 21.3065 29.2583 21.1327 28.6014 21.2949C27.928 21.4611 27.6064 21.9935 27.7443 22.5519C27.9145 23.2416 28.4105 23.4155 29.5012 23.5993L30.1368 23.7036C32.2979 24.0588 33.609 24.6411 34.0833 26.5624C34.5942 28.6318 33.2481 30.1663 31.0639 30.7055C28.929 31.2325 27.2981 30.5549 26.2964 29.3908" fill="black"/>
</g>
<defs>
<clipPath id="clip0_15_37">
<rect width="36" height="36" fill="white" transform="translate(0.210388 8.83884) rotate(-13.8675)"/>
</clipPath>
</defs>
</svg>
