<svg width="32" height="32" viewBox="0 0 32 32" fill="none" xmlns="http://www.w3.org/2000/svg">
<g clip-path="url(#clip0_15_41)">
<path d="M15.8258 25.6124C15.7214 25.6124 15.6239 25.5845 15.5333 25.5358L14.6069 24.9855C14.4676 24.9089 14.5372 24.881 14.5791 24.8671C14.7671 24.8044 14.8019 24.7904 14.997 24.6791C15.0179 24.6651 15.0458 24.6721 15.0666 24.686L15.7771 25.1109C15.805 25.1248 15.8398 25.1248 15.8607 25.1109L18.6399 23.5018C18.6678 23.4879 18.6817 23.46 18.6817 23.4252V20.2142C18.6817 20.1793 18.6678 20.1515 18.6399 20.1375L15.8607 18.5355C15.8328 18.5215 15.798 18.5215 15.7771 18.5355L12.9979 20.1375C12.97 20.1514 12.956 20.1863 12.956 20.2141V23.4252C12.956 23.4531 12.97 23.4879 12.9979 23.5018L13.7571 23.9407C14.1681 24.1496 14.4258 23.9058 14.4258 23.662V20.4927C14.4258 20.451 14.4606 20.4091 14.5094 20.4091H14.8646C14.9064 20.4091 14.9482 20.444 14.9482 20.4927V23.662C14.9482 24.2123 14.6487 24.5327 14.1263 24.5327C13.9661 24.5327 13.8407 24.5327 13.4854 24.3585L12.7541 23.9407C12.573 23.8362 12.4615 23.6411 12.4615 23.4322V20.2211C12.4615 20.0122 12.573 19.8171 12.7541 19.7126L15.5333 18.1036C15.7075 18.0061 15.9443 18.0061 16.1184 18.1036L18.8976 19.7126C19.0787 19.8171 19.1902 20.0122 19.1902 20.2211V23.4322C19.1902 23.6411 19.0787 23.8362 18.8976 23.9407L16.1184 25.5497C16.0278 25.5915 15.9233 25.6124 15.8258 25.6124ZM16.6826 23.4043C15.4637 23.4043 15.213 22.8471 15.213 22.3734C15.213 22.3316 15.2478 22.2899 15.2965 22.2899H15.6588C15.7005 22.2899 15.7354 22.3177 15.7354 22.3595C15.7911 22.7287 15.9513 22.9098 16.6896 22.9098C17.2747 22.9098 17.5256 22.7774 17.5256 22.464C17.5256 22.2829 17.4558 22.1506 16.5434 22.06C15.7841 21.9833 15.3105 21.8162 15.3105 21.2102C15.3105 20.646 15.7842 20.3116 16.5782 20.3116C17.4697 20.3116 17.9086 20.6181 17.9644 21.2868C17.9644 21.3077 17.9574 21.3286 17.9435 21.3495C17.9295 21.3634 17.9086 21.3773 17.8877 21.3773H17.5255C17.4907 21.3773 17.4558 21.3495 17.4489 21.3147C17.3653 20.9316 17.1494 20.8062 16.5782 20.8062C15.9374 20.8062 15.8607 21.0291 15.8607 21.1962C15.8607 21.3983 15.9513 21.4609 16.815 21.5724C17.6718 21.6839 18.0758 21.8441 18.0758 22.4431C18.0688 23.056 17.5673 23.4043 16.6826 23.4043Z" fill="#539E43"/>
<path d="M7.20257 13.0536C7.20257 12.9283 7.1329 12.8098 7.02147 12.7471L4.0681 11.0476C4.01928 11.0196 3.9636 11.0057 3.90791 10.9987H3.88001C3.82432 10.9987 3.76857 11.0196 3.71981 11.0476L0.766447 12.7471C0.654952 12.8098 0.585342 12.9282 0.585342 13.0536L0.592333 17.623C0.592333 17.6856 0.627168 17.7483 0.682856 17.7762C0.738604 17.8111 0.808213 17.8111 0.85703 17.7762L2.61233 16.7732C2.72377 16.7105 2.79344 16.5921 2.79344 16.4667V14.3283C2.79344 14.2029 2.86305 14.0845 2.97454 14.0218L3.71981 13.59C3.77556 13.5551 3.83824 13.5411 3.90092 13.5411C3.9636 13.5411 4.02628 13.5551 4.07509 13.59L4.82036 14.0218C4.93186 14.0845 5.00147 14.2029 5.00147 14.3283V16.4667C5.00147 16.5921 5.07114 16.7105 5.18258 16.7732L6.93788 17.7762C6.96499 17.7933 6.99638 17.8024 7.02843 17.8024C7.06047 17.8024 7.09186 17.7933 7.11898 17.7762C7.17473 17.7483 7.20956 17.6856 7.20956 17.623L7.20257 13.0536ZM21.3982 6.76377C21.3426 6.73587 21.2729 6.73587 21.2241 6.76377C21.1684 6.79861 21.1336 6.85429 21.1336 6.91697V11.4446C21.1336 11.4864 21.1127 11.5281 21.0709 11.556C21.0291 11.5769 20.9873 11.5769 20.9455 11.556L20.2072 11.1311C20.153 11.1003 20.0918 11.0841 20.0295 11.0841C19.9672 11.0841 19.906 11.1003 19.8519 11.1311L16.8985 12.8377C16.7871 12.9004 16.7174 13.0188 16.7174 13.1442V16.5503C16.7174 16.6756 16.7871 16.7941 16.8985 16.8568L19.8519 18.5633C19.906 18.5941 19.9672 18.6103 20.0295 18.6103C20.0918 18.6103 20.153 18.5941 20.2072 18.5633L23.1605 16.8568C23.272 16.7941 23.3416 16.6757 23.3416 16.5503V8.05935C23.3416 7.927 23.272 7.80864 23.1605 7.7459L21.3982 6.76377ZM21.1266 15.4288C21.1266 15.4637 21.1127 15.4915 21.0848 15.5054L20.0748 16.0905C20.0607 16.0974 20.0452 16.101 20.0295 16.101C20.0138 16.101 19.9984 16.0974 19.9842 16.0905L18.9743 15.5054C18.9464 15.4915 18.9324 15.4567 18.9324 15.4288V14.2586C18.9324 14.2238 18.9464 14.1959 18.9743 14.182L19.9842 13.5969C19.9984 13.59 20.0138 13.5864 20.0295 13.5864C20.0452 13.5864 20.0607 13.59 20.0748 13.5969L21.0848 14.182C21.1127 14.1959 21.1266 14.2308 21.1266 14.2586V15.4288ZM31.2266 14.2308C31.338 14.1681 31.4007 14.0497 31.4007 13.9243V13.0954C31.4007 12.97 31.3311 12.8516 31.2266 12.7889L28.2941 11.0894C28.24 11.0586 28.1787 11.0424 28.1165 11.0424C28.0542 11.0424 27.9929 11.0586 27.9388 11.0894L24.9855 12.7959C24.874 12.8585 24.8043 12.977 24.8043 13.1023V16.5085C24.8043 16.6338 24.874 16.7523 24.9855 16.8149L27.9179 18.4867C28.0294 18.5493 28.1617 18.5493 28.2663 18.4867L30.0424 17.4977C30.0982 17.4698 30.133 17.4071 30.133 17.3444C30.133 17.2817 30.0982 17.219 30.0424 17.1911L27.0751 15.4846C27.0194 15.4498 26.9845 15.3941 26.9845 15.3314V14.2657C26.9845 14.203 27.0194 14.1403 27.0751 14.1124L28.0015 13.583C28.0286 13.566 28.06 13.5569 28.092 13.5569C28.1241 13.5569 28.1555 13.566 28.1826 13.583L29.109 14.1124C29.1648 14.1473 29.1996 14.2029 29.1996 14.2657V15.1015C29.1996 15.1642 29.2344 15.2269 29.2901 15.2547C29.3173 15.2718 29.3487 15.2809 29.3807 15.2809C29.4127 15.2809 29.4441 15.2718 29.4713 15.2547L31.2266 14.2308Z" fill="white"/>
<path d="M28.0712 14.0705C28.0815 14.0637 28.0936 14.0601 28.106 14.0601C28.1184 14.0601 28.1305 14.0637 28.1408 14.0705L28.7051 14.3979C28.7259 14.4119 28.7398 14.4327 28.7398 14.4606V15.1154C28.7398 15.1432 28.726 15.1641 28.7051 15.1781L28.1408 15.5054C28.1305 15.5123 28.1184 15.5159 28.106 15.5159C28.0936 15.5159 28.0815 15.5123 28.0712 15.5054L27.507 15.1781C27.4861 15.1641 27.4722 15.1432 27.4722 15.1154V14.4606C27.4722 14.4327 27.486 14.4118 27.507 14.398L28.0712 14.0705Z" fill="#539E43"/>
<path d="M12.1411 11.1033C12.087 11.0725 12.0258 11.0563 11.9635 11.0563C11.9012 11.0563 11.84 11.0725 11.7859 11.1033L8.85343 12.7958C8.74194 12.8585 8.67926 12.9769 8.67926 13.1023V16.4945C8.67926 16.6199 8.74893 16.7383 8.85343 16.801L11.7859 18.4936C11.84 18.5244 11.9012 18.5406 11.9635 18.5406C12.0258 18.5406 12.087 18.5244 12.1411 18.4936L15.0736 16.801C15.1851 16.7383 15.2478 16.6199 15.2478 16.4945V13.1023C15.2478 12.977 15.1781 12.8585 15.0736 12.7959L12.1411 11.1033Z" fill="url(#paint0_linear_15_41)"/>
<mask id="mask0_15_41" style="mask-type:luminance" maskUnits="userSpaceOnUse" x="8" y="11" width="8" height="8">
<path d="M12.1411 11.1033C12.087 11.0725 12.0258 11.0563 11.9635 11.0563C11.9012 11.0563 11.84 11.0725 11.7859 11.1033L8.85343 12.7958C8.74194 12.8585 8.67926 12.9769 8.67926 13.1023V16.4945C8.67926 16.6199 8.74893 16.7383 8.85343 16.801L11.7859 18.4936C11.84 18.5244 11.9012 18.5406 11.9635 18.5406C12.0258 18.5406 12.087 18.5244 12.1411 18.4936L15.0736 16.801C15.1851 16.7383 15.2478 16.6199 15.2478 16.4945V13.1023C15.2478 12.977 15.1781 12.8585 15.0736 12.7959L12.1411 11.1033Z" fill="white"/>
</mask>
<g mask="url(#mask0_15_41)">
<path d="M15.0805 12.7959L12.1342 11.1033C12.1052 11.0887 12.0749 11.077 12.0436 11.0685L8.74193 16.7245C8.76928 16.7579 8.80231 16.7862 8.8395 16.8081L11.7859 18.5007C11.8695 18.5495 11.967 18.5634 12.0575 18.5355L15.1572 12.8656C15.1363 12.8377 15.1084 12.8167 15.0805 12.7959Z" fill="url(#paint1_linear_15_41)"/>
</g>
<mask id="mask1_15_41" style="mask-type:luminance" maskUnits="userSpaceOnUse" x="8" y="11" width="8" height="8">
<path d="M12.1411 11.1033C12.087 11.0725 12.0258 11.0563 11.9635 11.0563C11.9012 11.0563 11.84 11.0725 11.7859 11.1033L8.85343 12.7958C8.74194 12.8585 8.67926 12.9769 8.67926 13.1023V16.4945C8.67926 16.6199 8.74893 16.7383 8.85343 16.801L11.7859 18.4936C11.84 18.5244 11.9012 18.5406 11.9635 18.5406C12.0258 18.5406 12.087 18.5244 12.1411 18.4936L15.0736 16.801C15.1851 16.7383 15.2478 16.6199 15.2478 16.4945V13.1023C15.2478 12.977 15.1781 12.8585 15.0736 12.7959L12.1411 11.1033Z" fill="white"/>
</mask>
<g mask="url(#mask1_15_41)">
<path fill-rule="evenodd" clip-rule="evenodd" d="M15.0875 16.801C15.1711 16.7523 15.2338 16.6687 15.2617 16.5782L12.0296 11.0615C11.946 11.0476 11.8554 11.0545 11.7789 11.1032L8.85336 12.7889L12.0087 18.5424C12.0546 18.5349 12.0991 18.5208 12.141 18.5006L15.0875 16.801Z" fill="url(#paint2_linear_15_41)"/>
<path fill-rule="evenodd" clip-rule="evenodd" d="M15.0875 16.801L12.1481 18.4936C12.1066 18.5148 12.0619 18.5289 12.0157 18.5354L12.0715 18.6399L15.3313 16.7523V16.7105L15.2477 16.5712C15.2338 16.6687 15.1711 16.7523 15.0875 16.801Z" fill="url(#paint3_linear_15_41)"/>
<path fill-rule="evenodd" clip-rule="evenodd" d="M15.0875 16.801L12.1481 18.4936C12.1066 18.5148 12.0619 18.5289 12.0157 18.5354L12.0715 18.6399L15.3313 16.7523V16.7105L15.2477 16.5712C15.2338 16.6687 15.1711 16.7523 15.0875 16.801Z" fill="url(#paint4_linear_15_41)"/>
</g>
</g>
<defs>
<linearGradient id="paint0_linear_15_41" x1="456.575" y1="141.934" x2="135.149" y2="646.989" gradientUnits="userSpaceOnUse">
<stop stop-color="#41873F"/>
<stop offset="0.3288" stop-color="#418B3D"/>
<stop offset="0.6352" stop-color="#419637"/>
<stop offset="0.9319" stop-color="#3FA92D"/>
<stop offset="1" stop-color="#3FAE2A"/>
</linearGradient>
<linearGradient id="paint1_linear_15_41" x1="286.376" y1="423.801" x2="1091.37" y2="-13.5555" gradientUnits="userSpaceOnUse">
<stop offset="0.1376" stop-color="#41873F"/>
<stop offset="0.4032" stop-color="#54A044"/>
<stop offset="0.7136" stop-color="#66B848"/>
<stop offset="0.9081" stop-color="#6CC04A"/>
</linearGradient>
<linearGradient id="paint2_linear_15_41" x1="-19.2729" y1="385.396" x2="659.294" y2="385.396" gradientUnits="userSpaceOnUse">
<stop offset="0.09192" stop-color="#6CC04A"/>
<stop offset="0.2864" stop-color="#66B848"/>
<stop offset="0.5968" stop-color="#54A044"/>
<stop offset="0.8624" stop-color="#41873F"/>
</linearGradient>
<linearGradient id="paint3_linear_15_41" x1="-332.343" y1="120.578" x2="346.216" y2="120.578" gradientUnits="userSpaceOnUse">
<stop offset="0.09192" stop-color="#6CC04A"/>
<stop offset="0.2864" stop-color="#66B848"/>
<stop offset="0.5968" stop-color="#54A044"/>
<stop offset="0.8624" stop-color="#41873F"/>
</linearGradient>
<linearGradient id="paint4_linear_15_41" x1="445.073" y1="-420.079" x2="273.168" y2="480.701" gradientUnits="userSpaceOnUse">
<stop stop-color="#41873F"/>
<stop offset="0.3288" stop-color="#418B3D"/>
<stop offset="0.6352" stop-color="#419637"/>
<stop offset="0.9319" stop-color="#3FA92D"/>
<stop offset="1" stop-color="#3FAE2A"/>
</linearGradient>
<clipPath id="clip0_15_41">
<rect width="30.8571" height="18.9241" fill="white" transform="translate(0.571426 6.74286)"/>
</clipPath>
</defs>
</svg>
